<mxfile host="Electron" agent="Mozilla/5.0 (Windows NT 10.0; Win64; x64) AppleWebKit/537.36 (KHTML, like Gecko) draw.io/26.0.16 Chrome/132.0.6834.196 Electron/34.2.0 Safari/537.36" version="26.0.16">
  <diagram name="Page-1" id="qjJhCRvAyWDnfHAahH77">
    <mxGraphModel dx="4394" dy="1311" grid="1" gridSize="10" guides="1" tooltips="1" connect="1" arrows="1" fold="1" page="1" pageScale="1" pageWidth="850" pageHeight="1100" math="0" shadow="0">
      <root>
        <mxCell id="0" />
        <mxCell id="1" parent="0" />
        <mxCell id="l7SXhaxsWTp2CuDF0BoY-1" value="&lt;font style=&quot;font-size: 36px;&quot;&gt;User&lt;/font&gt;" style="shape=umlActor;verticalLabelPosition=bottom;verticalAlign=top;html=1;outlineConnect=0;" vertex="1" parent="1">
          <mxGeometry x="-65" y="411" width="380" height="629" as="geometry" />
        </mxCell>
        <mxCell id="l7SXhaxsWTp2CuDF0BoY-2" value="&lt;font style=&quot;font-size: 18px;&quot;&gt;Login&lt;/font&gt;" style="ellipse;whiteSpace=wrap;html=1;" vertex="1" parent="1">
          <mxGeometry x="1030" y="120" width="220" height="80" as="geometry" />
        </mxCell>
        <mxCell id="l7SXhaxsWTp2CuDF0BoY-3" value="&lt;font style=&quot;font-size: 18px;&quot;&gt;Register&lt;/font&gt;" style="ellipse;whiteSpace=wrap;html=1;" vertex="1" parent="1">
          <mxGeometry x="-1074" y="120" width="220" height="80" as="geometry" />
        </mxCell>
        <mxCell id="l7SXhaxsWTp2CuDF0BoY-4" value="&lt;font style=&quot;font-size: 18px;&quot;&gt;Add Contact&lt;/font&gt;" style="ellipse;whiteSpace=wrap;html=1;" vertex="1" parent="1">
          <mxGeometry x="-1074" y="331" width="220" height="80" as="geometry" />
        </mxCell>
        <mxCell id="l7SXhaxsWTp2CuDF0BoY-6" value="&lt;font size=&quot;3&quot;&gt;Close Account&lt;/font&gt;" style="ellipse;whiteSpace=wrap;html=1;" vertex="1" parent="1">
          <mxGeometry x="-1074" y="1310" width="220" height="80" as="geometry" />
        </mxCell>
        <mxCell id="l7SXhaxsWTp2CuDF0BoY-7" value="&lt;font size=&quot;3&quot;&gt;View All Saved Contacts&lt;/font&gt;" style="ellipse;whiteSpace=wrap;html=1;" vertex="1" parent="1">
          <mxGeometry x="-1074" y="900" width="220" height="80" as="geometry" />
        </mxCell>
        <mxCell id="l7SXhaxsWTp2CuDF0BoY-8" value="&lt;font style=&quot;font-size: 18px;&quot;&gt;Get All Blocked Contact&lt;/font&gt;" style="ellipse;whiteSpace=wrap;html=1;" vertex="1" parent="1">
          <mxGeometry x="1030" y="540" width="220" height="80" as="geometry" />
        </mxCell>
        <mxCell id="l7SXhaxsWTp2CuDF0BoY-9" value="&lt;span style=&quot;font-size: 18px;&quot;&gt;Unblock Contact&lt;/span&gt;" style="ellipse;whiteSpace=wrap;html=1;" vertex="1" parent="1">
          <mxGeometry x="-1074" y="540" width="220" height="80" as="geometry" />
        </mxCell>
        <mxCell id="l7SXhaxsWTp2CuDF0BoY-10" value="&lt;font style=&quot;font-size: 18px;&quot;&gt;Block Contact&lt;/font&gt;" style="ellipse;whiteSpace=wrap;html=1;" vertex="1" parent="1">
          <mxGeometry x="1030" y="331" width="220" height="80" as="geometry" />
        </mxCell>
        <mxCell id="l7SXhaxsWTp2CuDF0BoY-14" value="&lt;font style=&quot;font-size: 18px;&quot;&gt;Report Spam&lt;/font&gt;" style="ellipse;whiteSpace=wrap;html=1;" vertex="1" parent="1">
          <mxGeometry x="-1074" y="720" width="220" height="80" as="geometry" />
        </mxCell>
        <mxCell id="l7SXhaxsWTp2CuDF0BoY-15" value="&lt;font style=&quot;font-size: 18px;&quot;&gt;Get All Spam Contact List&lt;/font&gt;" style="ellipse;whiteSpace=wrap;html=1;" vertex="1" parent="1">
          <mxGeometry x="1030" y="720" width="220" height="80" as="geometry" />
        </mxCell>
        <mxCell id="l7SXhaxsWTp2CuDF0BoY-16" value="&lt;font size=&quot;3&quot;&gt;Delete Contact&lt;/font&gt;" style="ellipse;whiteSpace=wrap;html=1;" vertex="1" parent="1">
          <mxGeometry x="1030" y="900" width="220" height="80" as="geometry" />
        </mxCell>
        <mxCell id="l7SXhaxsWTp2CuDF0BoY-17" value="&lt;font size=&quot;3&quot;&gt;Update Contact&lt;/font&gt;" style="ellipse;whiteSpace=wrap;html=1;" vertex="1" parent="1">
          <mxGeometry x="-1070" y="1100" width="220" height="80" as="geometry" />
        </mxCell>
        <mxCell id="l7SXhaxsWTp2CuDF0BoY-18" value="&lt;font size=&quot;3&quot;&gt;Delete All Contact&lt;/font&gt;" style="ellipse;whiteSpace=wrap;html=1;" vertex="1" parent="1">
          <mxGeometry x="1030" y="1109" width="220" height="80" as="geometry" />
        </mxCell>
        <mxCell id="l7SXhaxsWTp2CuDF0BoY-19" value="&lt;font size=&quot;3&quot;&gt;LogOut&lt;/font&gt;" style="ellipse;whiteSpace=wrap;html=1;" vertex="1" parent="1">
          <mxGeometry x="1030" y="1310" width="220" height="80" as="geometry" />
        </mxCell>
        <mxCell id="l7SXhaxsWTp2CuDF0BoY-20" value="" style="endArrow=none;html=1;rounded=0;exitX=1;exitY=0.3333333333333333;exitDx=0;exitDy=0;exitPerimeter=0;entryX=0;entryY=0.5;entryDx=0;entryDy=0;" edge="1" parent="1" source="l7SXhaxsWTp2CuDF0BoY-1" target="l7SXhaxsWTp2CuDF0BoY-2">
          <mxGeometry width="50" height="50" relative="1" as="geometry">
            <mxPoint x="700" y="890" as="sourcePoint" />
            <mxPoint x="1010" y="180" as="targetPoint" />
          </mxGeometry>
        </mxCell>
        <mxCell id="l7SXhaxsWTp2CuDF0BoY-21" value="" style="endArrow=none;html=1;rounded=0;exitX=1;exitY=0.3333333333333333;exitDx=0;exitDy=0;exitPerimeter=0;entryX=0;entryY=0.5;entryDx=0;entryDy=0;" edge="1" parent="1" source="l7SXhaxsWTp2CuDF0BoY-1" target="l7SXhaxsWTp2CuDF0BoY-10">
          <mxGeometry width="50" height="50" relative="1" as="geometry">
            <mxPoint x="325" y="631" as="sourcePoint" />
            <mxPoint x="1040" y="170" as="targetPoint" />
          </mxGeometry>
        </mxCell>
        <mxCell id="l7SXhaxsWTp2CuDF0BoY-22" value="" style="endArrow=none;html=1;rounded=0;entryX=0;entryY=0.5;entryDx=0;entryDy=0;" edge="1" parent="1" target="l7SXhaxsWTp2CuDF0BoY-8">
          <mxGeometry width="50" height="50" relative="1" as="geometry">
            <mxPoint x="320" y="620" as="sourcePoint" />
            <mxPoint x="1040" y="381" as="targetPoint" />
          </mxGeometry>
        </mxCell>
        <mxCell id="l7SXhaxsWTp2CuDF0BoY-23" value="" style="endArrow=none;html=1;rounded=0;entryX=0;entryY=0.5;entryDx=0;entryDy=0;" edge="1" parent="1" target="l7SXhaxsWTp2CuDF0BoY-15">
          <mxGeometry width="50" height="50" relative="1" as="geometry">
            <mxPoint x="330" y="620" as="sourcePoint" />
            <mxPoint x="1040" y="590" as="targetPoint" />
          </mxGeometry>
        </mxCell>
        <mxCell id="l7SXhaxsWTp2CuDF0BoY-24" value="" style="endArrow=none;html=1;rounded=0;entryX=0;entryY=0.5;entryDx=0;entryDy=0;" edge="1" parent="1" target="l7SXhaxsWTp2CuDF0BoY-16">
          <mxGeometry width="50" height="50" relative="1" as="geometry">
            <mxPoint x="320" y="620" as="sourcePoint" />
            <mxPoint x="1040" y="770" as="targetPoint" />
          </mxGeometry>
        </mxCell>
        <mxCell id="l7SXhaxsWTp2CuDF0BoY-25" value="" style="endArrow=none;html=1;rounded=0;entryX=0;entryY=0.5;entryDx=0;entryDy=0;" edge="1" parent="1" target="l7SXhaxsWTp2CuDF0BoY-18">
          <mxGeometry width="50" height="50" relative="1" as="geometry">
            <mxPoint x="330" y="620" as="sourcePoint" />
            <mxPoint x="1040" y="950" as="targetPoint" />
          </mxGeometry>
        </mxCell>
        <mxCell id="l7SXhaxsWTp2CuDF0BoY-26" value="" style="endArrow=none;html=1;rounded=0;entryX=0;entryY=0.5;entryDx=0;entryDy=0;" edge="1" parent="1" target="l7SXhaxsWTp2CuDF0BoY-19">
          <mxGeometry width="50" height="50" relative="1" as="geometry">
            <mxPoint x="330" y="620" as="sourcePoint" />
            <mxPoint x="1040" y="1159" as="targetPoint" />
          </mxGeometry>
        </mxCell>
        <mxCell id="l7SXhaxsWTp2CuDF0BoY-27" value="" style="endArrow=none;html=1;rounded=0;entryX=1;entryY=0.5;entryDx=0;entryDy=0;exitX=0;exitY=0.3333333333333333;exitDx=0;exitDy=0;exitPerimeter=0;" edge="1" parent="1" source="l7SXhaxsWTp2CuDF0BoY-1" target="l7SXhaxsWTp2CuDF0BoY-3">
          <mxGeometry width="50" height="50" relative="1" as="geometry">
            <mxPoint x="700" y="890" as="sourcePoint" />
            <mxPoint x="750" y="840" as="targetPoint" />
          </mxGeometry>
        </mxCell>
        <mxCell id="l7SXhaxsWTp2CuDF0BoY-28" value="" style="endArrow=none;html=1;rounded=0;entryX=1;entryY=0.5;entryDx=0;entryDy=0;exitX=0;exitY=0.3333333333333333;exitDx=0;exitDy=0;exitPerimeter=0;" edge="1" parent="1" source="l7SXhaxsWTp2CuDF0BoY-1" target="l7SXhaxsWTp2CuDF0BoY-4">
          <mxGeometry width="50" height="50" relative="1" as="geometry">
            <mxPoint x="-55" y="631" as="sourcePoint" />
            <mxPoint x="-844" y="170" as="targetPoint" />
          </mxGeometry>
        </mxCell>
        <mxCell id="l7SXhaxsWTp2CuDF0BoY-29" value="" style="endArrow=none;html=1;rounded=0;entryX=1;entryY=0.5;entryDx=0;entryDy=0;exitX=0;exitY=0.3333333333333333;exitDx=0;exitDy=0;exitPerimeter=0;" edge="1" parent="1" source="l7SXhaxsWTp2CuDF0BoY-1" target="l7SXhaxsWTp2CuDF0BoY-9">
          <mxGeometry width="50" height="50" relative="1" as="geometry">
            <mxPoint x="-55" y="631" as="sourcePoint" />
            <mxPoint x="-844" y="381" as="targetPoint" />
          </mxGeometry>
        </mxCell>
        <mxCell id="l7SXhaxsWTp2CuDF0BoY-30" value="" style="endArrow=none;html=1;rounded=0;entryX=1;entryY=0.5;entryDx=0;entryDy=0;" edge="1" parent="1" target="l7SXhaxsWTp2CuDF0BoY-14">
          <mxGeometry width="50" height="50" relative="1" as="geometry">
            <mxPoint x="-70" y="620" as="sourcePoint" />
            <mxPoint x="-844" y="590" as="targetPoint" />
          </mxGeometry>
        </mxCell>
        <mxCell id="l7SXhaxsWTp2CuDF0BoY-31" value="" style="endArrow=none;html=1;rounded=0;entryX=1;entryY=0.5;entryDx=0;entryDy=0;" edge="1" parent="1" target="l7SXhaxsWTp2CuDF0BoY-7">
          <mxGeometry width="50" height="50" relative="1" as="geometry">
            <mxPoint x="-70" y="620" as="sourcePoint" />
            <mxPoint x="-844" y="770" as="targetPoint" />
          </mxGeometry>
        </mxCell>
        <mxCell id="l7SXhaxsWTp2CuDF0BoY-32" value="" style="endArrow=none;html=1;rounded=0;entryX=1;entryY=0.5;entryDx=0;entryDy=0;" edge="1" parent="1" target="l7SXhaxsWTp2CuDF0BoY-17">
          <mxGeometry width="50" height="50" relative="1" as="geometry">
            <mxPoint x="-80" y="620" as="sourcePoint" />
            <mxPoint x="-844" y="950" as="targetPoint" />
          </mxGeometry>
        </mxCell>
        <mxCell id="l7SXhaxsWTp2CuDF0BoY-33" value="" style="endArrow=none;html=1;rounded=0;entryX=1;entryY=0.5;entryDx=0;entryDy=0;" edge="1" parent="1" target="l7SXhaxsWTp2CuDF0BoY-6">
          <mxGeometry width="50" height="50" relative="1" as="geometry">
            <mxPoint x="-90" y="620" as="sourcePoint" />
            <mxPoint x="-840" y="1150" as="targetPoint" />
          </mxGeometry>
        </mxCell>
      </root>
    </mxGraphModel>
  </diagram>
</mxfile>
